<?xml version="1.0" encoding="UTF-8"?>
<!DOCTYPE svg PUBLIC "-//W3C//DTD SVG 1.1//EN" "http://www.w3.org/Graphics/SVG/1.1/DTD/svg11.dtd">
<svg xmlns="http://www.w3.org/2000/svg" version="1.1" width="1024px" height="1024px" style="shape-rendering:geometricPrecision; text-rendering:geometricPrecision; image-rendering:optimizeQuality; fill-rule:evenodd; clip-rule:evenodd" xmlns:xlink="http://www.w3.org/1999/xlink">
<g><path style="opacity:1" fill="#fefdfa" d="M -0.5,-0.5 C 340.833,-0.5 682.167,-0.5 1023.5,-0.5C 1023.5,340.833 1023.5,682.167 1023.5,1023.5C 682.167,1023.5 340.833,1023.5 -0.5,1023.5C -0.5,682.167 -0.5,340.833 -0.5,-0.5 Z"/></g>
<g><path style="opacity:1" fill="#14aa95" d="M 373.5,239.5 C 414.727,238.595 443.561,256.928 460,294.5C 476.156,290.002 492.656,288.002 509.5,288.5C 527.135,287.736 544.302,290.069 561,295.5C 575.017,260.567 600.85,241.901 638.5,239.5C 683.888,243.45 711.055,267.783 720,312.5C 722.178,333.118 717.678,352.118 706.5,369.5C 719.789,388.703 726.456,410.037 726.5,433.5C 659.202,441.74 595.535,461.573 535.5,493C 527.496,497.333 519.829,502.167 512.5,507.5C 470.803,481.649 426.137,462.482 378.5,450C 350.092,442.564 321.426,436.398 292.5,431.5C 294.498,409.503 301.831,389.503 314.5,371.5C 297.242,346.733 293.742,320.066 304,291.5C 317.677,261.418 340.843,244.085 373.5,239.5 Z"/></g>
<g><path style="opacity:1" fill="#27a4b4" d="M 343.5,358.5 C 357.032,372.233 373.365,377.566 392.5,374.5C 376.774,379.254 362.108,375.921 348.5,364.5C 347.914,364.709 347.414,365.043 347,365.5C 345.807,363.114 344.64,360.78 343.5,358.5 Z"/></g>
<g><path style="opacity:1" fill="#fbac21" d="M 392.5,374.5 C 373.365,377.566 357.032,372.233 343.5,358.5C 330.645,339.436 329.145,319.436 339,298.5C 352.317,278.5 370.817,271 394.5,276C 424.563,287.956 435.73,309.789 428,341.5C 421.392,358.28 409.558,369.28 392.5,374.5 Z"/></g>
<g><path style="opacity:1" fill="#efc020" d="M 371.5,350.5 C 385.621,358.528 398.455,356.862 410,345.5C 417.031,334.224 417.198,322.89 410.5,311.5C 410.81,310.262 411.31,310.262 412,311.5C 418.23,323.374 417.897,335.04 411,346.5C 402.071,356.216 391.238,359.383 378.5,356C 375.664,354.609 373.331,352.776 371.5,350.5 Z"/></g>
<g><path style="opacity:1" fill="#08635b" d="M 407.5,308.5 C 408.728,309.306 409.728,310.306 410.5,311.5C 417.198,322.89 417.031,334.224 410,345.5C 398.455,356.862 385.621,358.528 371.5,350.5C 362.738,341.453 359.904,330.787 363,318.5C 364.116,315.244 365.949,312.578 368.5,310.5C 380.959,298.917 393.792,298.584 407,309.5C 407.399,309.272 407.565,308.938 407.5,308.5 Z"/></g>
<g><path style="opacity:1" fill="#1d5067" d="M 407.5,308.5 C 407.565,308.938 407.399,309.272 407,309.5C 393.792,298.584 380.959,298.917 368.5,310.5C 371.481,305.713 375.814,302.546 381.5,301C 391.741,298.586 400.408,301.086 407.5,308.5 Z"/></g>
<g><path style="opacity:1" fill="#fbab20" d="M 629.5,274.5 C 659.54,272.421 678.706,285.755 687,314.5C 690.31,346.493 676.477,366.327 645.5,374C 615.998,375.49 597.498,361.99 590,333.5C 587.251,302.96 600.417,283.293 629.5,274.5 Z"/></g>
<g><path style="opacity:1" fill="#155066" d="M 605.5,323.5 C 605.977,332.75 609.311,340.917 615.5,348C 624.824,355.474 634.658,356.308 645,350.5C 645.617,349.551 645.451,348.718 644.5,348C 647.988,347.676 649.988,345.842 650.5,342.5C 651.675,342.719 652.675,342.386 653.5,341.5C 654.761,338.086 656.095,335.42 657.5,333.5C 655.408,345.426 648.408,352.593 636.5,355C 615.365,355.364 605.032,344.864 605.5,323.5 Z"/></g>
<g><path style="opacity:1" fill="#145961" d="M 658.5,331.5 C 657.781,324.454 655.614,317.787 652,311.5C 651.586,311.957 651.086,312.291 650.5,312.5C 647.949,310.231 645.949,307.564 644.5,304.5C 643.205,305.098 641.872,305.598 640.5,306C 640.833,306.333 641.167,306.667 641.5,307C 640.207,307.49 638.873,307.657 637.5,307.5C 637.5,306.5 637.5,305.5 637.5,304.5C 632.461,304.549 632.295,303.882 637,302.5C 638.84,303.833 639.34,303.666 638.5,302C 633.649,301.826 628.982,301.326 624.5,300.5C 641.733,297.705 652.9,304.705 658,321.5C 658.498,324.817 658.665,328.15 658.5,331.5 Z"/></g>
<g><path style="opacity:1" fill="#05645a" d="M 624.5,300.5 C 628.982,301.326 633.649,301.826 638.5,302C 639.34,303.666 638.84,303.833 637,302.5C 632.295,303.882 632.461,304.549 637.5,304.5C 637.5,305.5 637.5,306.5 637.5,307.5C 638.873,307.657 640.207,307.49 641.5,307C 641.167,306.667 640.833,306.333 640.5,306C 641.872,305.598 643.205,305.098 644.5,304.5C 645.949,307.564 647.949,310.231 650.5,312.5C 651.086,312.291 651.586,311.957 652,311.5C 655.614,317.787 657.781,324.454 658.5,331.5C 658.672,332.492 658.338,333.158 657.5,333.5C 656.095,335.42 654.761,338.086 653.5,341.5C 652.675,342.386 651.675,342.719 650.5,342.5C 649.988,345.842 647.988,347.676 644.5,348C 645.451,348.718 645.617,349.551 645,350.5C 634.658,356.308 624.824,355.474 615.5,348C 609.311,340.917 605.977,332.75 605.5,323.5C 607.106,311.897 613.439,304.23 624.5,300.5 Z"/></g>
<g><path style="opacity:1" fill="#036358" d="M 646.5,403.5 C 658.489,402.323 663.322,407.656 661,419.5C 655.88,428.287 649.047,435.453 640.5,441C 607.669,461.054 572.002,472.721 533.5,476C 484.496,480.496 438.163,471.496 394.5,449C 382.907,443.081 372.74,435.247 364,425.5C 359.184,418.838 359.351,412.338 364.5,406C 370.817,403.632 376.817,404.299 382.5,408C 395.309,420.586 410.309,429.919 427.5,436C 471.305,450.631 515.972,453.631 561.5,445C 583.189,440.882 603.523,433.215 622.5,422C 630.707,415.942 638.707,409.775 646.5,403.5 Z"/></g>
<g><path style="opacity:1" fill="#11aa67" d="M 765.5,445.5 C 764.667,530.999 764.167,616.666 764,702.5C 762.702,703.946 762.535,705.279 763.5,706.5C 761.053,709.899 757.72,712.065 753.5,713C 675.05,732.595 598.383,757.595 523.5,788C 519.56,789.015 515.56,789.515 511.5,789.5C 511.5,787.5 511.5,785.5 511.5,783.5C 511.5,697.167 511.5,610.833 511.5,524.5C 541.256,505.624 572.923,490.458 606.5,479C 654.061,461.61 702.727,448.277 752.5,439C 758.776,437.471 763.109,439.638 765.5,445.5 Z"/></g>
<g><path style="opacity:1" fill="#fdfbf8" d="M 575.5,712.5 C 575.333,657.832 575.5,603.166 576,548.5C 579.473,547.065 582.973,545.732 586.5,544.5C 593.707,542.264 600.874,539.931 608,537.5C 626.853,561.236 645.686,584.903 664.5,608.5C 666.474,611.482 668.474,614.482 670.5,617.5C 670.56,618.043 670.893,618.376 671.5,618.5C 672.5,598.511 672.833,578.511 672.5,558.5C 672.167,544.817 672.501,531.15 673.5,517.5C 684.749,514.45 696.082,511.784 707.5,509.5C 707.667,563.168 707.5,616.834 707,670.5C 696.605,673.632 686.271,676.965 676,680.5C 654.426,653.682 633.092,626.682 612,599.5C 611.5,633.165 611.333,666.832 611.5,700.5C 599.438,704.298 587.438,708.298 575.5,712.5 Z"/></g>
<g><path style="opacity:1" fill="#0871bd" d="M 243.5,436.5 C 332.013,444.386 415.68,469.219 494.5,511C 497.921,512.699 500.921,514.865 503.5,517.5C 505.411,519.917 507.578,522.25 510,524.5C 510.167,611.001 510.667,697.334 511.5,783.5C 511.5,785.5 511.5,787.5 511.5,789.5C 506.295,789.866 501.295,789.033 496.5,787C 460.554,768.363 423.221,753.03 384.5,741C 338.177,726.669 291.177,715.003 243.5,706C 237.136,704.298 233.636,700.132 233,693.5C 232.168,610.999 232.334,528.666 233.5,446.5C 233.333,520.834 233.5,595.167 234,669.5C 234.333,594.833 234.667,520.167 235,445.5C 235.45,443.481 236.283,441.648 237.5,440C 241.232,438.031 245.232,437.031 249.5,437C 247.527,436.505 245.527,436.338 243.5,436.5 Z"/></g>
<g><path style="opacity:1" fill="#f8fafb" d="M 306.5,497.5 C 345.22,507.765 383.553,519.432 421.5,532.5C 422.177,543.728 422.843,554.895 423.5,566C 422.833,566.167 422.167,566.333 421.5,566.5C 395.529,558.953 369.529,551.619 343.5,544.5C 343.168,554.522 343.501,564.522 344.5,574.5C 366.772,581.702 389.106,588.702 411.5,595.5C 412.529,606.814 413.196,618.147 413.5,629.5C 408.083,628.479 402.75,627.146 397.5,625.5C 381.166,620.833 364.833,616.166 348.5,611.5C 347.359,610.661 346.026,609.994 344.5,609.5C 343.501,620.48 343.168,631.48 343.5,642.5C 369.958,650.032 396.291,658.032 422.5,666.5C 423.666,679.154 423.833,691.82 423,704.5C 395.182,694.394 367.015,685.394 338.5,677.5C 328.213,674.572 317.88,671.739 307.5,669C 306.422,668.326 305.755,667.326 305.5,666C 306.49,609.852 306.823,553.686 306.5,497.5 Z"/></g>
<g><path style="opacity:1" fill="#fefbf7" d="M 311.5,503.5 C 316.373,504.043 321.373,505.209 326.5,507C 327.035,509.109 328.035,509.609 329.5,508.5C 330.192,509.025 330.692,509.692 331,510.5C 332.154,508.043 333.488,508.043 335,510.5C 335.561,509.978 336.228,509.645 337,509.5C 364.108,517.094 390.942,525.261 417.5,534C 418.743,535.154 419.743,536.488 420.5,538C 419.367,544.839 419.367,551.506 420.5,558C 420.146,560.264 419.146,562.098 417.5,563.5C 415.889,562.68 415.222,561.346 415.5,559.5C 413.208,559.244 411.041,559.577 409,560.5C 407.829,558.384 406.329,557.718 404.5,558.5C 398.155,556.444 391.989,554.11 386,551.5C 384.602,552.051 383.268,552.384 382,552.5C 376.215,550.47 370.548,548.136 365,545.5C 364.275,546.059 363.442,546.392 362.5,546.5C 356.422,544.315 350.255,542.315 344,540.5C 343,540.833 342,541.167 341,541.5C 340.468,550.917 339.968,560.417 339.5,570C 339.955,572.312 340.955,574.312 342.5,576C 342.167,576.333 341.833,576.667 341.5,577C 355.931,580.68 370.264,585.347 384.5,591C 386.112,591.72 387.612,591.554 389,590.5C 394.621,593.637 400.621,595.971 407,597.5C 407.945,597.905 408.612,598.572 409,599.5C 409.613,604.025 409.446,608.191 408.5,612C 409.167,615.667 409.833,619.333 410.5,623C 402.559,623.8 395.059,622.3 388,618.5C 386.984,619.634 386.317,619.301 386,617.5C 385.667,617.833 385.333,618.167 385,618.5C 383.806,616.475 382.306,616.141 380.5,617.5C 379.808,616.975 379.308,616.308 379,615.5C 377.417,615.493 375.751,615.826 374,616.5C 369.239,613.711 364.072,611.878 358.5,611C 357.167,610.333 355.833,609.667 354.5,609C 355.696,608.346 355.696,607.846 354.5,607.5C 352.899,608.165 351.399,608.499 350,608.5C 348.43,607.642 346.763,606.975 345,606.5C 343.51,607.682 342.177,608.682 341,609.5C 340.549,620.538 340.382,631.371 340.5,642C 341.047,642.925 341.713,643.758 342.5,644.5C 348.771,646.637 354.771,649.304 360.5,652.5C 362.641,652.112 364.641,652.112 366.5,652.5C 372.992,654.769 379.492,657.103 386,659.5C 386.333,659.167 386.667,658.833 387,658.5C 389.563,659.741 392.063,661.074 394.5,662.5C 395.167,662.167 395.833,661.833 396.5,661.5C 402.745,663.269 408.911,665.269 415,667.5C 415.414,667.043 415.914,666.709 416.5,666.5C 416.338,668.631 417.671,669.631 420.5,669.5C 420.53,679.97 420.364,690.303 420,700.5C 415.747,697.73 411.247,695.397 406.5,693.5C 405.914,693.709 405.414,694.043 405,694.5C 381.503,687.19 357.836,679.523 334,671.5C 332.578,672.205 331.245,672.539 330,672.5C 329.481,671.484 328.647,670.818 327.5,670.5C 321.753,669.521 316.253,667.854 311,665.5C 310.667,665.833 310.333,666.167 310,666.5C 309.697,664.112 308.863,661.945 307.5,660C 308.167,659.333 308.833,658.667 309.5,658C 309.098,654.615 308.764,651.615 308.5,649C 310.434,647.271 310.434,645.271 308.5,643C 309.153,597.326 309.153,551.493 308.5,505.5C 310.179,505.715 311.179,505.048 311.5,503.5 Z"/></g>
<g><path style="opacity:1" fill="#77cca9" d="M 671.5,558.5 C 671.833,558.5 672.167,558.5 672.5,558.5C 672.833,578.511 672.5,598.511 671.5,618.5C 670.893,618.376 670.56,618.043 670.5,617.5C 671.497,598.007 671.83,578.34 671.5,558.5 Z"/></g>
<g><path style="opacity:1" fill="#038c2f" d="M 671.5,558.5 C 671.83,578.34 671.497,598.007 670.5,617.5C 668.474,614.482 666.474,611.482 664.5,608.5C 666.785,609.957 668.618,611.957 670,614.5C 670.333,582.167 670.667,549.833 671,517.5C 671.5,531.163 671.667,544.829 671.5,558.5 Z"/></g>
<g><path style="opacity:1" fill="#1b58b4" d="M 306.5,497.5 C 306.823,553.686 306.49,609.852 305.5,666C 305.755,667.326 306.422,668.326 307.5,669C 317.88,671.739 328.213,674.572 338.5,677.5C 338.265,678.097 337.765,678.43 337,678.5C 326.261,675.649 315.594,672.649 305,669.5C 304.333,624.5 304.333,579.5 305,534.5C 305.169,521.993 305.669,509.66 306.5,497.5 Z"/></g>
<g><path style="opacity:1" fill="#0149a7" d="M 243.5,436.5 C 245.527,436.338 247.527,436.505 249.5,437C 245.232,437.031 241.232,438.031 237.5,440C 236.283,441.648 235.45,443.481 235,445.5C 234.667,520.167 234.333,594.833 234,669.5C 233.5,595.167 233.333,520.834 233.5,446.5C 233.862,440.138 237.195,436.805 243.5,436.5 Z"/></g>
<g><path style="opacity:1" fill="#0e4baa" d="M 348.5,611.5 C 364.833,616.166 381.166,620.833 397.5,625.5C 396.399,626.598 395.066,626.765 393.5,626C 378.105,621.911 363.105,617.078 348.5,611.5 Z"/></g>
<g><path style="opacity:1" fill="#0f55cc" d="M 503.5,517.5 C 506.764,519.094 509.431,521.427 511.5,524.5C 511.5,610.833 511.5,697.167 511.5,783.5C 510.667,697.334 510.167,611.001 510,524.5C 507.578,522.25 505.411,519.917 503.5,517.5 Z"/></g>
<g><path style="opacity:1" fill="#169c50" d="M 765.5,445.5 C 766.664,530.43 766.83,615.43 766,700.5C 765.427,702.641 764.594,704.641 763.5,706.5C 762.535,705.279 762.702,703.946 764,702.5C 764.167,616.666 764.667,530.999 765.5,445.5 Z"/></g>
<g><path style="opacity:1" fill="#018822" d="M 586.5,544.5 C 582.973,545.732 579.473,547.065 576,548.5C 575.5,603.166 575.333,657.832 575.5,712.5C 574.335,657.668 574.168,602.668 575,547.5C 578.745,545.107 582.578,544.107 586.5,544.5 Z"/></g>
</svg>
